<svg xmlns="http://www.w3.org/2000/svg" viewBox="0 0 24 24"><path d="M12 0A12.154 12.154 0 000 12.3a12.285 12.285 0 008.207 11.68c.6.111.817-.268.817-.593 0-.292-.01-1.067-.013-2.092-3.339.743-4.044-1.651-4.044-1.651a3.23 3.23 0 00-1.332-1.8c-1.087-.764.083-.744.083-.744a2.521 2.521 0 011.837 1.268 2.52 2.52 0 003.493 1.02 2.663 2.663 0 01.764-1.646c-2.664-.309-5.464-1.365-5.464-6.081a4.835 4.835 0 011.232-3.3A4.53 4.53 0 015.697 5.1s1.007-.332 3.3 1.259a11.086 11.086 0 016.006 0c2.293-1.593 3.3-1.259 3.3-1.259a4.509 4.509 0 01.119 3.257 4.8 4.8 0 011.232 3.3c0 4.728-2.8 5.767-5.477 6.072a2.988 2.988 0 01.812 2.277c0 1.646-.014 2.973-.014 3.376 0 .329.214.712.827.591a12.283 12.283 0 008.2-11.673A12.154 12.154 0 0012 0z" fill="#1a212d" fill-rule="evenodd"/></svg>
