<svg xmlns="http://www.w3.org/2000/svg" viewBox="0 0 24 24"><path d="M22.667 0H1.333A1.333 1.333 0 000 1.333v21.334A1.333 1.333 0 001.333 24h21.334A1.333 1.333 0 0024 22.667V1.333A1.333 1.333 0 0022.667 0zM7.119 20.449H3.556V9h3.563zM5.337 7.432A2.064 2.064 0 117.4 5.368a2.064 2.064 0 01-2.063 2.064zm15.114 13.017h-3.559V14.88c0-1.328-.024-3.036-1.851-3.036-1.853 0-2.135 1.448-2.135 2.943v5.664H9.351V9h3.413v1.565h.049a3.737 3.737 0 013.365-1.849c3.605 0 4.271 2.371 4.271 5.456v6.28z" fill="#1a212d"/></svg>
