<svg xmlns="http://www.w3.org/2000/svg" viewBox="0 0 24 20"><path d="M21.534 4.858c.016.214.016.426.016.639a13.9 13.9 0 01-14 14A13.9 13.9 0 010 17.281a10.28 10.28 0 001.188.061 9.854 9.854 0 006.107-2.1 4.929 4.929 0 01-4.6-3.411 6.264 6.264 0 00.929.076 5.234 5.234 0 001.3-.167A4.918 4.918 0 01.979 6.912v-.061a4.964 4.964 0 002.221.63A4.926 4.926 0 011.674.899a13.992 13.992 0 0010.144 5.148 5.59 5.59 0 01-.118-1.128 4.924 4.924 0 018.513-3.366A9.718 9.718 0 0023.335.365a4.91 4.91 0 01-2.167 2.716A9.859 9.859 0 0024 2.314a10.558 10.558 0 01-2.466 2.544z" fill="#1a212d"/></svg>
